# xmcd
#
# Track frame offsets:
#	150
#	8510
#	16790
#	24410
#	36940
#	49357
#	65305
#	80407
#	92192
#	103545
#	110320
#	122875
#	140702
#	152127
#	162927
#	175752
#	186537
#	197410
#	210307
#	219195
#
# Disc length: 3108 seconds
#
# Revision: 1
# Processed by: cddbd v1.5.2PL0 Copyright (c) Steve Scherf et al.
# Submitted via: audiograbber 1.83.01
#
DISCID=050c2214
DTITLE=Chad Morgan - The Sheik
DYEAR=1900
DGENRE=Comedy
TTITLE0=The Sheik Of Scrubby Creek
TTITLE1=If I Could Just Go Back
TTITLE2=The Fatal Wedding
TTITLE3=All So Nice In The Nuthouse
TTITLE4=Nobody Else But Little Me
TTITLE5=One Of The Mob
TTITLE6=The Shotgun Wedding
TTITLE7=Chook Song
TTITLE8=Duckinwilla Dance
TTITLE9=Here I Am
TTITLE10=Banana Boat
TTITLE11=Pistol Packin'mamma
TTITLE12=Double Decker Blowflies
TTITLE13=The Car Song
TTITLE14=One Hundred Pounds Of Dynamite
TTITLE15=Muckin' Round And Truckin'round
TTITLE16=Don't Drink The Water (In The Outback Mate) 
TTITLE17=You Can't Take It With You
TTITLE18=Arm Around A Sheila
TTITLE19=Can't Cut The Mustard
EXTD=
EXTT0=
EXTT1=
EXTT2=
EXTT3=
EXTT4=
EXTT5=
EXTT6=
EXTT7=
EXTT8=
EXTT9=
EXTT10=
EXTT11=
EXTT12=
EXTT13=
EXTT14=
EXTT15=
EXTT16=
EXTT17=
EXTT18=
EXTT19=
PLAYORDER=
